<?xml version="1.0" encoding="utf-8"?>
<svg width="1024px" height="1024px" viewbox="0 0 1024 1024" version="1.1" xmlns:xlink="http://www.w3.org/1999/xlink" xmlns="http://www.w3.org/2000/svg">
  <defs>
    <rect width="1024" height="1024" id="artboard_1" />
    <clipPath id="clip_1">
      <use xlink:href="#artboard_1" clip-rule="evenodd" />
    </clipPath>
  </defs>
  <g id="背景" clip-path="url(#clip_1)">
    <use xlink:href="#artboard_1" stroke="none" fill="#FFFFFF" fill-opacity="0" />
    <path d="M512 0C512 -4.47605e-05 512 -4.47605e-05 512 -4.47605e-05C533.113 0.13261 554.229 0.0679346 575.34 0.397919C668.026 1.84667 765.315 11.1824 847.727 57.2688C864.378 66.5807 880.224 77.3413 894.919 89.5138C909.305 101.43 922.567 114.692 934.484 129.078C950.867 148.857 964.66 170.708 975.876 193.799C991.796 226.574 1002.56 261.665 1009.68 297.343C1023.79 368.069 1023.55 440.203 1024 512C1024 512 1024 512 1024 512C1023.87 533.113 1023.93 554.229 1023.6 575.34C1022.15 668.026 1012.82 765.315 966.731 847.727C957.419 864.378 946.659 880.224 934.486 894.919C922.57 909.305 909.308 922.567 894.922 934.484C875.143 950.868 853.292 964.659 830.201 975.876C797.426 991.796 762.335 1002.56 726.657 1009.68C655.932 1023.79 583.797 1023.55 512 1024C512 1024 512 1024 512 1024C440.205 1023.55 368.072 1023.79 297.348 1009.68C261.67 1002.56 226.578 991.798 193.803 975.878C170.712 964.662 148.86 950.87 129.081 934.486C114.695 922.57 101.433 909.309 89.5164 894.922C77.3437 880.227 66.5832 864.382 57.2709 847.73C11.1844 765.322 1.84698 668.034 0.398071 575.35C0.0679902 554.236 0.132676 533.117 -2.23802e-05 512C-2.23802e-05 512 -2.23802e-05 512 -2.23802e-05 512C0.132614 490.887 0.0679162 469.771 0.397888 448.66C1.84659 355.975 11.1823 258.685 57.2686 176.274C66.5808 159.622 77.341 143.777 89.5138 129.081C101.43 114.695 114.692 101.433 129.078 89.5165C148.857 73.1326 170.708 59.3406 193.799 48.1243C226.574 32.204 261.665 21.4434 297.343 14.3244C368.068 0.212072 440.203 0.451182 512 0Z" id="Rectangle" fill="#F26C35" fill-rule="evenodd" stroke="none" />
    <g id="左括号" transform="translate(120.000015 266.99997)">
      <path d="M39.999 0L40.001 0Q40.9829 0 41.9637 0.0481805Q42.9444 0.0963611 43.9216 0.192606Q44.8988 0.288851 45.8701 0.432929Q46.8414 0.577006 47.8044 0.768569Q48.7675 0.960133 49.72 1.19872Q50.6725 1.43731 51.6121 1.72234Q52.5517 2.00738 53.4762 2.33818Q54.4008 2.66898 55.3079 3.04474Q56.2151 3.42051 57.1028 3.84033Q57.9904 4.26016 58.8564 4.72303Q59.7224 5.1859 60.5646 5.69071Q61.4068 6.19552 62.2233 6.74105Q63.0397 7.28657 63.8284 7.8715Q64.6171 8.45643 65.3761 9.07935Q66.1351 9.70228 66.8627 10.3617Q67.5902 11.0211 68.2846 11.7154Q68.9789 12.4098 69.6383 13.1373Q70.2977 13.8649 70.9206 14.6239Q71.5436 15.3829 72.1285 16.1716Q72.7134 16.9603 73.2589 17.7767Q73.8045 18.5932 74.3093 19.4354Q74.8141 20.2776 75.277 21.1436Q75.7398 22.0096 76.1597 22.8972Q76.5795 23.7849 76.9553 24.692Q77.331 25.5992 77.6618 26.5237Q77.9926 27.4483 78.2776 28.3879Q78.5627 29.3275 78.8013 30.28Q79.0399 31.2325 79.2314 32.1956Q79.423 33.1586 79.5671 34.1299Q79.7111 35.1012 79.8074 36.0784Q79.9036 37.0556 79.9518 38.0363Q80 39.0171 80 39.999L80 260.001Q80 260.983 79.9518 261.964Q79.9036 262.944 79.8074 263.922Q79.7111 264.899 79.5671 265.87Q79.423 266.841 79.2314 267.804Q79.0399 268.767 78.8013 269.72Q78.5627 270.672 78.2777 271.612Q77.9926 272.552 77.6618 273.476Q77.331 274.401 76.9553 275.308Q76.5795 276.215 76.1597 277.103Q75.7398 277.99 75.277 278.856Q74.8141 279.722 74.3093 280.565Q73.8045 281.407 73.2589 282.223Q72.7134 283.04 72.1285 283.828Q71.5436 284.617 70.9206 285.376Q70.2977 286.135 69.6383 286.863Q68.9789 287.59 68.2846 288.285Q67.5902 288.979 66.8627 289.638Q66.1351 290.298 65.3761 290.921Q64.6171 291.544 63.8284 292.128Q63.0397 292.713 62.2233 293.259Q61.4068 293.804 60.5646 294.309Q59.7224 294.814 58.8564 295.277Q57.9904 295.74 57.1028 296.16Q56.2151 296.579 55.3079 296.955Q54.4008 297.331 53.4762 297.662Q52.5517 297.993 51.6121 298.278Q50.6725 298.563 49.72 298.801Q48.7675 299.04 47.8044 299.231Q46.8414 299.423 45.8701 299.567Q44.8988 299.711 43.9216 299.807Q42.9444 299.904 41.9637 299.952Q40.9829 300 40.001 300L39.999 300Q39.0171 300 38.0363 299.952Q37.0556 299.904 36.0784 299.807Q35.1012 299.711 34.1299 299.567Q33.1586 299.423 32.1956 299.231Q31.2325 299.04 30.28 298.801Q29.3275 298.563 28.3879 298.278Q27.4483 297.993 26.5237 297.662Q25.5992 297.331 24.692 296.955Q23.7849 296.579 22.8972 296.16Q22.0096 295.74 21.1436 295.277Q20.2776 294.814 19.4354 294.309Q18.5932 293.804 17.7767 293.259Q16.9603 292.713 16.1716 292.128Q15.3829 291.544 14.6239 290.921Q13.8649 290.298 13.1373 289.638Q12.4098 288.979 11.7154 288.285Q11.0211 287.59 10.3617 286.863Q9.70228 286.135 9.07935 285.376Q8.45643 284.617 7.8715 283.828Q7.28657 283.04 6.74105 282.223Q6.19552 281.407 5.69071 280.565Q5.1859 279.722 4.72303 278.856Q4.26016 277.99 3.84033 277.103Q3.42051 276.215 3.04474 275.308Q2.66898 274.401 2.33818 273.476Q2.00738 272.552 1.72234 271.612Q1.43731 270.672 1.19872 269.72Q0.960133 268.767 0.768569 267.804Q0.577006 266.841 0.432929 265.87Q0.288851 264.899 0.192606 263.922Q0.0963611 262.944 0.0481805 261.964Q0 260.983 0 260.001L0 39.999Q0 39.0171 0.0481805 38.0363Q0.0963611 37.0556 0.192606 36.0784Q0.288851 35.1012 0.432929 34.1299Q0.577006 33.1586 0.768569 32.1956Q0.960133 31.2325 1.19872 30.28Q1.43731 29.3275 1.72234 28.3879Q2.00738 27.4483 2.33818 26.5237Q2.66898 25.5992 3.04474 24.692Q3.42051 23.7849 3.84033 22.8972Q4.26016 22.0096 4.72303 21.1436Q5.1859 20.2776 5.69071 19.4354Q6.19552 18.5932 6.74105 17.7767Q7.28657 16.9603 7.8715 16.1716Q8.45643 15.3829 9.07935 14.6239Q9.70228 13.8649 10.3617 13.1373Q11.0211 12.4098 11.7154 11.7154Q12.4098 11.0211 13.1373 10.3617Q13.8649 9.70228 14.6239 9.07935Q15.3829 8.45643 16.1716 7.8715Q16.9603 7.28657 17.7767 6.74105Q18.5932 6.19552 19.4354 5.69071Q20.2776 5.1859 21.1436 4.72303Q22.0096 4.26016 22.8972 3.84033Q23.7849 3.42051 24.692 3.04474Q25.5992 2.66898 26.5237 2.33818Q27.4483 2.00738 28.3879 1.72234Q29.3275 1.43731 30.28 1.19872Q31.2325 0.960133 32.1956 0.768569Q33.1586 0.577006 34.1299 0.432929Q35.1012 0.288851 36.0784 0.192606Q37.0556 0.0963611 38.0363 0.0481805Q39.0171 0 39.999 0Z" transform="matrix(0.8480481 0.52991927 -0.52991927 0.8480481 158.97574 1.8239021E-05)" id="Rectangle" fill="#FFFFFF" fill-rule="evenodd" stroke="none" />
      <path d="M39.999 0L40.001 0Q40.9829 0 41.9637 0.0481805Q42.9444 0.0963611 43.9216 0.192606Q44.8988 0.288851 45.8701 0.432929Q46.8414 0.577006 47.8044 0.768569Q48.7675 0.960133 49.72 1.19872Q50.6725 1.43731 51.6121 1.72234Q52.5517 2.00738 53.4762 2.33818Q54.4008 2.66898 55.3079 3.04474Q56.2151 3.42051 57.1028 3.84033Q57.9904 4.26016 58.8564 4.72303Q59.7224 5.1859 60.5646 5.69071Q61.4068 6.19552 62.2233 6.74105Q63.0397 7.28657 63.8284 7.8715Q64.6171 8.45643 65.3761 9.07935Q66.1351 9.70228 66.8627 10.3617Q67.5902 11.0211 68.2846 11.7154Q68.9789 12.4098 69.6383 13.1373Q70.2977 13.8649 70.9206 14.6239Q71.5436 15.3829 72.1285 16.1716Q72.7134 16.9603 73.2589 17.7767Q73.8045 18.5932 74.3093 19.4354Q74.8141 20.2776 75.277 21.1436Q75.7398 22.0096 76.1597 22.8972Q76.5795 23.7849 76.9553 24.692Q77.331 25.5992 77.6618 26.5237Q77.9926 27.4483 78.2776 28.3879Q78.5627 29.3275 78.8013 30.28Q79.0399 31.2325 79.2314 32.1956Q79.423 33.1586 79.5671 34.1299Q79.7111 35.1012 79.8074 36.0784Q79.9036 37.0556 79.9518 38.0363Q80 39.0171 80 39.999L80 260.001Q80 260.983 79.9518 261.964Q79.9036 262.944 79.8074 263.922Q79.7111 264.899 79.5671 265.87Q79.423 266.841 79.2314 267.804Q79.0399 268.767 78.8013 269.72Q78.5627 270.672 78.2777 271.612Q77.9926 272.552 77.6618 273.476Q77.331 274.401 76.9553 275.308Q76.5795 276.215 76.1597 277.103Q75.7398 277.99 75.277 278.856Q74.8141 279.722 74.3093 280.565Q73.8045 281.407 73.2589 282.223Q72.7134 283.04 72.1285 283.828Q71.5436 284.617 70.9206 285.376Q70.2977 286.135 69.6383 286.863Q68.9789 287.59 68.2846 288.285Q67.5902 288.979 66.8627 289.638Q66.1351 290.298 65.3761 290.921Q64.6171 291.544 63.8284 292.128Q63.0397 292.713 62.2233 293.259Q61.4068 293.804 60.5646 294.309Q59.7224 294.814 58.8564 295.277Q57.9904 295.74 57.1028 296.16Q56.2151 296.579 55.3079 296.955Q54.4008 297.331 53.4762 297.662Q52.5517 297.993 51.6121 298.278Q50.6725 298.563 49.72 298.801Q48.7675 299.04 47.8044 299.231Q46.8414 299.423 45.8701 299.567Q44.8988 299.711 43.9216 299.807Q42.9444 299.904 41.9637 299.952Q40.9829 300 40.001 300L39.999 300Q39.0171 300 38.0363 299.952Q37.0556 299.904 36.0784 299.807Q35.1012 299.711 34.1299 299.567Q33.1586 299.423 32.1956 299.231Q31.2325 299.04 30.28 298.801Q29.3275 298.563 28.3879 298.278Q27.4483 297.993 26.5237 297.662Q25.5992 297.331 24.692 296.955Q23.7849 296.579 22.8972 296.16Q22.0096 295.74 21.1436 295.277Q20.2776 294.814 19.4354 294.309Q18.5932 293.804 17.7767 293.259Q16.9603 292.713 16.1716 292.128Q15.3829 291.544 14.6239 290.921Q13.8649 290.298 13.1373 289.638Q12.4098 288.979 11.7154 288.285Q11.0211 287.59 10.3617 286.863Q9.70228 286.135 9.07935 285.376Q8.45643 284.617 7.8715 283.828Q7.28657 283.04 6.74105 282.223Q6.19552 281.407 5.69071 280.565Q5.1859 279.722 4.72303 278.856Q4.26016 277.99 3.84033 277.103Q3.42051 276.215 3.04474 275.308Q2.66898 274.401 2.33818 273.476Q2.00738 272.552 1.72234 271.612Q1.43731 270.672 1.19872 269.72Q0.960133 268.767 0.768569 267.804Q0.577006 266.841 0.432929 265.87Q0.288851 264.899 0.192606 263.922Q0.0963611 262.944 0.0481805 261.964Q0 260.983 0 260.001L0 39.999Q0 39.0171 0.0481805 38.0363Q0.0963611 37.0556 0.192606 36.0784Q0.288851 35.1012 0.432929 34.1299Q0.577006 33.1586 0.768569 32.1956Q0.960133 31.2325 1.19872 30.28Q1.43731 29.3275 1.72234 28.3879Q2.00738 27.4483 2.33818 26.5237Q2.66898 25.5992 3.04474 24.692Q3.42051 23.7849 3.84033 22.8972Q4.26016 22.0096 4.72303 21.1436Q5.1859 20.2776 5.69071 19.4354Q6.19552 18.5932 6.74105 17.7767Q7.28657 16.9603 7.8715 16.1716Q8.45643 15.3829 9.07935 14.6239Q9.70228 13.8649 10.3617 13.1373Q11.0211 12.4098 11.7154 11.7154Q12.4098 11.0211 13.1373 10.3617Q13.8649 9.70228 14.6239 9.07935Q15.3829 8.45643 16.1716 7.8715Q16.9603 7.28657 17.7767 6.74105Q18.5932 6.19552 19.4354 5.69071Q20.2776 5.1859 21.1436 4.72303Q22.0096 4.26016 22.8972 3.84033Q23.7849 3.42051 24.692 3.04474Q25.5992 2.66898 26.5237 2.33818Q27.4483 2.00738 28.3879 1.72234Q29.3275 1.43731 30.28 1.19872Q31.2325 0.960133 32.1956 0.768569Q33.1586 0.577006 34.1299 0.432929Q35.1012 0.288851 36.0784 0.192606Q37.0556 0.0963611 38.0363 0.0481805Q39.0171 0 39.999 0Z" transform="matrix(0.8480481 -0.52991927 -0.52991927 -0.8480481 159.94829 490.00003)" id="Rectangle-2" fill="#FFFFFF" fill-rule="evenodd" stroke="none" />
    </g>
    <g id="右括号" transform="matrix(-1 0 0 1 905.2921 266.99997)">
      <path d="M39.999 0L40.001 0Q40.9829 0 41.9637 0.0481805Q42.9444 0.0963611 43.9216 0.192606Q44.8988 0.288851 45.8701 0.432929Q46.8414 0.577006 47.8044 0.768569Q48.7675 0.960133 49.72 1.19872Q50.6725 1.43731 51.6121 1.72234Q52.5517 2.00738 53.4762 2.33818Q54.4008 2.66898 55.3079 3.04474Q56.2151 3.42051 57.1028 3.84033Q57.9904 4.26016 58.8564 4.72303Q59.7224 5.1859 60.5646 5.69071Q61.4068 6.19552 62.2233 6.74105Q63.0397 7.28657 63.8284 7.8715Q64.6171 8.45643 65.3761 9.07935Q66.1351 9.70228 66.8627 10.3617Q67.5902 11.0211 68.2846 11.7154Q68.9789 12.4098 69.6383 13.1373Q70.2977 13.8649 70.9206 14.6239Q71.5436 15.3829 72.1285 16.1716Q72.7134 16.9603 73.2589 17.7767Q73.8045 18.5932 74.3093 19.4354Q74.8141 20.2776 75.277 21.1436Q75.7398 22.0096 76.1597 22.8972Q76.5795 23.7849 76.9553 24.692Q77.331 25.5992 77.6618 26.5237Q77.9926 27.4483 78.2776 28.3879Q78.5627 29.3275 78.8013 30.28Q79.0399 31.2325 79.2314 32.1956Q79.423 33.1586 79.5671 34.1299Q79.7111 35.1012 79.8074 36.0784Q79.9036 37.0556 79.9518 38.0363Q80 39.0171 80 39.999L80 260.001Q80 260.983 79.9518 261.964Q79.9036 262.944 79.8074 263.922Q79.7111 264.899 79.5671 265.87Q79.423 266.841 79.2314 267.804Q79.0399 268.767 78.8013 269.72Q78.5627 270.672 78.2777 271.612Q77.9926 272.552 77.6618 273.476Q77.331 274.401 76.9553 275.308Q76.5795 276.215 76.1597 277.103Q75.7398 277.99 75.277 278.856Q74.8141 279.722 74.3093 280.565Q73.8045 281.407 73.2589 282.223Q72.7134 283.04 72.1285 283.828Q71.5436 284.617 70.9206 285.376Q70.2977 286.135 69.6383 286.863Q68.9789 287.59 68.2846 288.285Q67.5902 288.979 66.8627 289.638Q66.1351 290.298 65.3761 290.921Q64.6171 291.544 63.8284 292.128Q63.0397 292.713 62.2233 293.259Q61.4068 293.804 60.5646 294.309Q59.7224 294.814 58.8564 295.277Q57.9904 295.74 57.1028 296.16Q56.2151 296.579 55.3079 296.955Q54.4008 297.331 53.4762 297.662Q52.5517 297.993 51.6121 298.278Q50.6725 298.563 49.72 298.801Q48.7675 299.04 47.8044 299.231Q46.8414 299.423 45.8701 299.567Q44.8988 299.711 43.9216 299.807Q42.9444 299.904 41.9637 299.952Q40.9829 300 40.001 300L39.999 300Q39.0171 300 38.0363 299.952Q37.0556 299.904 36.0784 299.807Q35.1012 299.711 34.1299 299.567Q33.1586 299.423 32.1956 299.231Q31.2325 299.04 30.28 298.801Q29.3275 298.563 28.3879 298.278Q27.4483 297.993 26.5237 297.662Q25.5992 297.331 24.692 296.955Q23.7849 296.579 22.8972 296.16Q22.0096 295.74 21.1436 295.277Q20.2776 294.814 19.4354 294.309Q18.5932 293.804 17.7767 293.259Q16.9603 292.713 16.1716 292.128Q15.3829 291.544 14.6239 290.921Q13.8649 290.298 13.1373 289.638Q12.4098 288.979 11.7154 288.285Q11.0211 287.59 10.3617 286.863Q9.70228 286.135 9.07935 285.376Q8.45643 284.617 7.8715 283.828Q7.28657 283.04 6.74105 282.223Q6.19552 281.407 5.69071 280.565Q5.1859 279.722 4.72303 278.856Q4.26016 277.99 3.84033 277.103Q3.42051 276.215 3.04474 275.308Q2.66898 274.401 2.33818 273.476Q2.00738 272.552 1.72234 271.612Q1.43731 270.672 1.19872 269.72Q0.960133 268.767 0.768569 267.804Q0.577006 266.841 0.432929 265.87Q0.288851 264.899 0.192606 263.922Q0.0963611 262.944 0.0481805 261.964Q0 260.983 0 260.001L0 39.999Q0 39.0171 0.0481805 38.0363Q0.0963611 37.0556 0.192606 36.0784Q0.288851 35.1012 0.432929 34.1299Q0.577006 33.1586 0.768569 32.1956Q0.960133 31.2325 1.19872 30.28Q1.43731 29.3275 1.72234 28.3879Q2.00738 27.4483 2.33818 26.5237Q2.66898 25.5992 3.04474 24.692Q3.42051 23.7849 3.84033 22.8972Q4.26016 22.0096 4.72303 21.1436Q5.1859 20.2776 5.69071 19.4354Q6.19552 18.5932 6.74105 17.7767Q7.28657 16.9603 7.8715 16.1716Q8.45643 15.3829 9.07935 14.6239Q9.70228 13.8649 10.3617 13.1373Q11.0211 12.4098 11.7154 11.7154Q12.4098 11.0211 13.1373 10.3617Q13.8649 9.70228 14.6239 9.07935Q15.3829 8.45643 16.1716 7.8715Q16.9603 7.28657 17.7767 6.74105Q18.5932 6.19552 19.4354 5.69071Q20.2776 5.1859 21.1436 4.72303Q22.0096 4.26016 22.8972 3.84033Q23.7849 3.42051 24.692 3.04474Q25.5992 2.66898 26.5237 2.33818Q27.4483 2.00738 28.3879 1.72234Q29.3275 1.43731 30.28 1.19872Q31.2325 0.960133 32.1956 0.768569Q33.1586 0.577006 34.1299 0.432929Q35.1012 0.288851 36.0784 0.192606Q37.0556 0.0963611 38.0363 0.0481805Q39.0171 0 39.999 0Z" transform="matrix(0.8480481 0.52991927 -0.52991927 0.8480481 158.97577 1.8239021E-05)" id="Rectangle" fill="#FFFFFF" fill-rule="evenodd" stroke="none" />
      <path d="M39.999 0L40.001 0Q40.9829 0 41.9637 0.0481805Q42.9444 0.0963611 43.9216 0.192606Q44.8988 0.288851 45.8701 0.432929Q46.8414 0.577006 47.8044 0.768569Q48.7675 0.960133 49.72 1.19872Q50.6725 1.43731 51.6121 1.72234Q52.5517 2.00738 53.4762 2.33818Q54.4008 2.66898 55.3079 3.04474Q56.2151 3.42051 57.1028 3.84033Q57.9904 4.26016 58.8564 4.72303Q59.7224 5.1859 60.5646 5.69071Q61.4068 6.19552 62.2233 6.74105Q63.0397 7.28657 63.8284 7.8715Q64.6171 8.45643 65.3761 9.07935Q66.1351 9.70228 66.8627 10.3617Q67.5902 11.0211 68.2846 11.7154Q68.9789 12.4098 69.6383 13.1373Q70.2977 13.8649 70.9206 14.6239Q71.5436 15.3829 72.1285 16.1716Q72.7134 16.9603 73.2589 17.7767Q73.8045 18.5932 74.3093 19.4354Q74.8141 20.2776 75.277 21.1436Q75.7398 22.0096 76.1597 22.8972Q76.5795 23.7849 76.9553 24.692Q77.331 25.5992 77.6618 26.5237Q77.9926 27.4483 78.2776 28.3879Q78.5627 29.3275 78.8013 30.28Q79.0399 31.2325 79.2314 32.1956Q79.423 33.1586 79.5671 34.1299Q79.7111 35.1012 79.8074 36.0784Q79.9036 37.0556 79.9518 38.0363Q80 39.0171 80 39.999L80 260.001Q80 260.983 79.9518 261.964Q79.9036 262.944 79.8074 263.922Q79.7111 264.899 79.5671 265.87Q79.423 266.841 79.2314 267.804Q79.0399 268.767 78.8013 269.72Q78.5627 270.672 78.2777 271.612Q77.9926 272.552 77.6618 273.476Q77.331 274.401 76.9553 275.308Q76.5795 276.215 76.1597 277.103Q75.7398 277.99 75.277 278.856Q74.8141 279.722 74.3093 280.565Q73.8045 281.407 73.2589 282.223Q72.7134 283.04 72.1285 283.828Q71.5436 284.617 70.9206 285.376Q70.2977 286.135 69.6383 286.863Q68.9789 287.59 68.2846 288.285Q67.5902 288.979 66.8627 289.638Q66.1351 290.298 65.3761 290.921Q64.6171 291.544 63.8284 292.128Q63.0397 292.713 62.2233 293.259Q61.4068 293.804 60.5646 294.309Q59.7224 294.814 58.8564 295.277Q57.9904 295.74 57.1028 296.16Q56.2151 296.579 55.3079 296.955Q54.4008 297.331 53.4762 297.662Q52.5517 297.993 51.6121 298.278Q50.6725 298.563 49.72 298.801Q48.7675 299.04 47.8044 299.231Q46.8414 299.423 45.8701 299.567Q44.8988 299.711 43.9216 299.807Q42.9444 299.904 41.9637 299.952Q40.9829 300 40.001 300L39.999 300Q39.0171 300 38.0363 299.952Q37.0556 299.904 36.0784 299.807Q35.1012 299.711 34.1299 299.567Q33.1586 299.423 32.1956 299.231Q31.2325 299.04 30.28 298.801Q29.3275 298.563 28.3879 298.278Q27.4483 297.993 26.5237 297.662Q25.5992 297.331 24.692 296.955Q23.7849 296.579 22.8972 296.16Q22.0096 295.74 21.1436 295.277Q20.2776 294.814 19.4354 294.309Q18.5932 293.804 17.7767 293.259Q16.9603 292.713 16.1716 292.128Q15.3829 291.544 14.6239 290.921Q13.8649 290.298 13.1373 289.638Q12.4098 288.979 11.7154 288.285Q11.0211 287.59 10.3617 286.863Q9.70228 286.135 9.07935 285.376Q8.45643 284.617 7.8715 283.828Q7.28657 283.04 6.74105 282.223Q6.19552 281.407 5.69071 280.565Q5.1859 279.722 4.72303 278.856Q4.26016 277.99 3.84033 277.103Q3.42051 276.215 3.04474 275.308Q2.66898 274.401 2.33818 273.476Q2.00738 272.552 1.72234 271.612Q1.43731 270.672 1.19872 269.72Q0.960133 268.767 0.768569 267.804Q0.577006 266.841 0.432929 265.87Q0.288851 264.899 0.192606 263.922Q0.0963611 262.944 0.0481805 261.964Q0 260.983 0 260.001L0 39.999Q0 39.0171 0.0481805 38.0363Q0.0963611 37.0556 0.192606 36.0784Q0.288851 35.1012 0.432929 34.1299Q0.577006 33.1586 0.768569 32.1956Q0.960133 31.2325 1.19872 30.28Q1.43731 29.3275 1.72234 28.3879Q2.00738 27.4483 2.33818 26.5237Q2.66898 25.5992 3.04474 24.692Q3.42051 23.7849 3.84033 22.8972Q4.26016 22.0096 4.72303 21.1436Q5.1859 20.2776 5.69071 19.4354Q6.19552 18.5932 6.74105 17.7767Q7.28657 16.9603 7.8715 16.1716Q8.45643 15.3829 9.07935 14.6239Q9.70228 13.8649 10.3617 13.1373Q11.0211 12.4098 11.7154 11.7154Q12.4098 11.0211 13.1373 10.3617Q13.8649 9.70228 14.6239 9.07935Q15.3829 8.45643 16.1716 7.8715Q16.9603 7.28657 17.7767 6.74105Q18.5932 6.19552 19.4354 5.69071Q20.2776 5.1859 21.1436 4.72303Q22.0096 4.26016 22.8972 3.84033Q23.7849 3.42051 24.692 3.04474Q25.5992 2.66898 26.5237 2.33818Q27.4483 2.00738 28.3879 1.72234Q29.3275 1.43731 30.28 1.19872Q31.2325 0.960133 32.1956 0.768569Q33.1586 0.577006 34.1299 0.432929Q35.1012 0.288851 36.0784 0.192606Q37.0556 0.0963611 38.0363 0.0481805Q39.0171 0 39.999 0Z" transform="matrix(0.8480481 -0.52991927 -0.52991927 -0.8480481 159.94829 490.00003)" id="Rectangle-2" fill="#FFFFFF" fill-rule="evenodd" stroke="none" />
    </g>
    <g id="扳手" transform="matrix(0.9396926 0.34202012 -0.34202012 0.9396926 542.6066 195.25526)">
      <path d="M0 80C0 35.8172 35.8172 0 80 0C124.183 0 160 35.8172 160 80C160 124.183 124.183 160 80 160C35.8172 160 0 124.183 0 80Z" transform="matrix(1 0 0 -1 0.00030517578 597.00006)" id="Mask-2" fill="#FFFFFF" fill-rule="evenodd" stroke="none" />
      <path d="M34.999 0L35.001 0Q35.8601 0 36.7183 0.0421578Q37.5764 0.0843156 38.4315 0.16853Q39.2865 0.252744 40.1364 0.378811Q40.9862 0.504878 41.8289 0.672495Q42.6716 0.840112 43.505 1.04887Q44.3384 1.25764 45.1606 1.50704Q45.9828 1.75645 46.7917 2.0459Q47.6007 2.33534 48.3945 2.66414Q49.1883 2.99293 49.9649 3.36028Q50.7416 3.72762 51.4994 4.13263Q52.2571 4.53765 52.994 4.97935Q53.731 5.42106 54.4453 5.89839Q55.1597 6.37572 55.8498 6.88753Q56.5399 7.39934 57.2041 7.9444Q57.8682 8.48945 58.5048 9.06644Q59.1414 9.64343 59.749 10.251Q60.3565 10.8585 60.9335 11.4951Q61.5105 12.1317 62.0555 12.7959Q62.6006 13.46 63.1124 14.1501Q63.6242 14.8402 64.1015 15.5546Q64.5789 16.269 65.0206 17.0059Q65.4623 17.7428 65.8673 18.5006Q66.2723 19.2583 66.6396 20.035Q67.007 20.8117 67.3358 21.6054Q67.6646 22.3992 67.954 23.2082Q68.2435 24.0171 68.4929 24.8393Q68.7423 25.6615 68.951 26.4949Q69.1598 27.3283 69.3274 28.171Q69.495 29.0137 69.6211 29.8635Q69.7472 30.7134 69.8314 31.5685Q69.9156 32.4235 69.9578 33.2816Q69.9999 34.1398 69.9999 34.999L69.9999 88.7338Q69.9999 89.5929 69.9578 90.4511Q69.9156 91.3092 69.8314 92.1643Q69.7472 93.0193 69.6211 93.8692Q69.495 94.719 69.3274 95.5617Q69.1598 96.4044 68.951 97.2378Q68.7423 98.0712 68.4929 98.8934Q68.2435 99.7156 67.954 100.525Q67.6646 101.334 67.3358 102.127Q67.007 102.921 66.6396 103.698Q66.2723 104.474 65.8673 105.232Q65.4623 105.99 65.0206 106.727Q64.5789 107.464 64.1015 108.178Q63.6242 108.893 63.1124 109.583Q62.6006 110.273 62.0555 110.937Q61.5105 111.601 60.9335 112.238Q60.3565 112.874 59.749 113.482Q59.1414 114.089 58.5048 114.666Q57.8682 115.243 57.2041 115.788Q56.5399 116.333 55.8498 116.845Q55.1597 117.357 54.4453 117.834Q53.731 118.312 52.994 118.753Q52.2571 119.195 51.4994 119.6Q50.7416 120.005 49.9649 120.372Q49.1883 120.74 48.3945 121.069Q47.6007 121.397 46.7917 121.687Q45.9828 121.976 45.1606 122.226Q44.3384 122.475 43.505 122.684Q42.6716 122.893 41.8289 123.06Q40.9862 123.228 40.1364 123.354Q39.2865 123.48 38.4315 123.564Q37.5764 123.648 36.7183 123.691Q35.8601 123.733 35.001 123.733L34.999 123.733Q34.1398 123.733 33.2816 123.691Q32.4235 123.648 31.5685 123.564Q30.7134 123.48 29.8635 123.354Q29.0137 123.228 28.171 123.06Q27.3283 122.893 26.4949 122.684Q25.6615 122.475 24.8393 122.226Q24.0171 121.976 23.2082 121.687Q22.3992 121.397 21.6054 121.069Q20.8117 120.74 20.035 120.372Q19.2583 120.005 18.5006 119.6Q17.7428 119.195 17.0059 118.753Q16.269 118.312 15.5546 117.834Q14.8402 117.357 14.1501 116.845Q13.46 116.333 12.7959 115.788Q12.1317 115.243 11.4951 114.666Q10.8585 114.089 10.251 113.482Q9.64343 112.874 9.06644 112.238Q8.48945 111.601 7.9444 110.937Q7.39934 110.273 6.88753 109.583Q6.37572 108.893 5.89839 108.178Q5.42106 107.464 4.97935 106.727Q4.53765 105.99 4.13263 105.232Q3.72762 104.474 3.36027 103.698Q2.99293 102.921 2.66414 102.127Q2.33534 101.334 2.0459 100.525Q1.75645 99.7156 1.50704 98.8934Q1.25764 98.0712 1.04887 97.2378Q0.840112 96.4044 0.672495 95.5617Q0.504878 94.719 0.378811 93.8692Q0.252744 93.0193 0.16853 92.1643Q0.0843156 91.3092 0.0421578 90.4511Q0 89.5929 0 88.7338L0 34.999Q0 34.1398 0.0421578 33.2816Q0.0843156 32.4235 0.16853 31.5685Q0.252744 30.7134 0.378811 29.8635Q0.504878 29.0137 0.672495 28.171Q0.840112 27.3283 1.04887 26.4949Q1.25764 25.6615 1.50704 24.8393Q1.75645 24.0171 2.0459 23.2082Q2.33534 22.3992 2.66414 21.6054Q2.99293 20.8117 3.36028 20.035Q3.72762 19.2583 4.13263 18.5006Q4.53765 17.7428 4.97935 17.0059Q5.42106 16.269 5.89839 15.5546Q6.37572 14.8402 6.88753 14.1501Q7.39934 13.46 7.9444 12.7959Q8.48945 12.1317 9.06644 11.4951Q9.64343 10.8585 10.251 10.251Q10.8585 9.64343 11.4951 9.06644Q12.1317 8.48945 12.7959 7.9444Q13.46 7.39934 14.1501 6.88753Q14.8402 6.37572 15.5546 5.89839Q16.269 5.42106 17.0059 4.97935Q17.7428 4.53765 18.5006 4.13263Q19.2583 3.72762 20.035 3.36027Q20.8117 2.99293 21.6054 2.66414Q22.3992 2.33534 23.2082 2.0459Q24.0171 1.75645 24.8393 1.50704Q25.6615 1.25764 26.4949 1.04887Q27.3283 0.840112 28.171 0.672495Q29.0137 0.504878 29.8635 0.378811Q30.7134 0.252744 31.5685 0.16853Q32.4235 0.0843156 33.2816 0.0421578Q34.1398 0 34.999 0L34.999 0Z" transform="matrix(1 0 0 -1 45.000366 617.4025)" id="Rectangle-3" fill="#F26C35" fill-rule="evenodd" stroke="none" />
      <path d="M0 80C0 35.8172 35.8172 0 80 0C124.183 0 160 35.8172 160 80C160 124.183 124.183 160 80 160C35.8172 160 0 124.183 0 80Z" transform="translate(0 20.402527)" id="Mask-3" fill="#FFFFFF" fill-rule="evenodd" stroke="none" />
      <path d="M34.999 0L35.001 0Q35.8601 0 36.7183 0.0421578Q37.5764 0.0843156 38.4315 0.16853Q39.2865 0.252744 40.1364 0.378811Q40.9862 0.504878 41.8289 0.672495Q42.6716 0.840112 43.505 1.04887Q44.3384 1.25764 45.1606 1.50704Q45.9828 1.75645 46.7917 2.0459Q47.6007 2.33534 48.3945 2.66414Q49.1883 2.99293 49.9649 3.36028Q50.7416 3.72762 51.4994 4.13263Q52.2571 4.53765 52.994 4.97935Q53.731 5.42106 54.4453 5.89839Q55.1597 6.37572 55.8498 6.88753Q56.5399 7.39934 57.2041 7.9444Q57.8682 8.48945 58.5048 9.06644Q59.1414 9.64343 59.749 10.251Q60.3565 10.8585 60.9335 11.4951Q61.5105 12.1317 62.0555 12.7959Q62.6006 13.46 63.1124 14.1501Q63.6242 14.8402 64.1015 15.5546Q64.5789 16.269 65.0206 17.0059Q65.4623 17.7428 65.8673 18.5006Q66.2723 19.2583 66.6396 20.035Q67.007 20.8117 67.3358 21.6054Q67.6646 22.3992 67.954 23.2082Q68.2435 24.0171 68.4929 24.8393Q68.7423 25.6615 68.951 26.4949Q69.1598 27.3283 69.3274 28.171Q69.495 29.0137 69.6211 29.8635Q69.7472 30.7134 69.8314 31.5685Q69.9156 32.4235 69.9578 33.2816Q69.9999 34.1398 69.9999 34.999L69.9999 88.7338Q69.9999 89.5929 69.9578 90.4511Q69.9156 91.3092 69.8314 92.1643Q69.7472 93.0193 69.6211 93.8692Q69.495 94.719 69.3274 95.5617Q69.1598 96.4044 68.951 97.2378Q68.7423 98.0712 68.4929 98.8934Q68.2435 99.7156 67.954 100.525Q67.6646 101.334 67.3358 102.127Q67.007 102.921 66.6396 103.698Q66.2723 104.474 65.8673 105.232Q65.4623 105.99 65.0206 106.727Q64.5789 107.464 64.1015 108.178Q63.6242 108.893 63.1124 109.583Q62.6006 110.273 62.0555 110.937Q61.5105 111.601 60.9335 112.238Q60.3565 112.874 59.749 113.482Q59.1414 114.089 58.5048 114.666Q57.8682 115.243 57.2041 115.788Q56.5399 116.333 55.8498 116.845Q55.1597 117.357 54.4453 117.834Q53.731 118.312 52.994 118.753Q52.2571 119.195 51.4994 119.6Q50.7416 120.005 49.9649 120.372Q49.1883 120.74 48.3945 121.069Q47.6007 121.397 46.7917 121.687Q45.9828 121.976 45.1606 122.226Q44.3384 122.475 43.505 122.684Q42.6716 122.893 41.8289 123.06Q40.9862 123.228 40.1364 123.354Q39.2865 123.48 38.4315 123.564Q37.5764 123.648 36.7183 123.691Q35.8601 123.733 35.001 123.733L34.999 123.733Q34.1398 123.733 33.2816 123.691Q32.4235 123.648 31.5685 123.564Q30.7134 123.48 29.8635 123.354Q29.0137 123.228 28.171 123.06Q27.3283 122.893 26.4949 122.684Q25.6615 122.475 24.8393 122.226Q24.0171 121.976 23.2082 121.687Q22.3992 121.397 21.6054 121.069Q20.8117 120.74 20.035 120.372Q19.2583 120.005 18.5006 119.6Q17.7428 119.195 17.0059 118.753Q16.269 118.312 15.5546 117.834Q14.8402 117.357 14.1501 116.845Q13.46 116.333 12.7959 115.788Q12.1317 115.243 11.4951 114.666Q10.8585 114.089 10.251 113.482Q9.64343 112.874 9.06644 112.238Q8.48945 111.601 7.9444 110.937Q7.39934 110.273 6.88753 109.583Q6.37572 108.893 5.89839 108.178Q5.42106 107.464 4.97935 106.727Q4.53765 105.99 4.13263 105.232Q3.72762 104.474 3.36027 103.698Q2.99293 102.921 2.66414 102.127Q2.33534 101.334 2.0459 100.525Q1.75645 99.7156 1.50704 98.8934Q1.25764 98.0712 1.04887 97.2378Q0.840112 96.4044 0.672495 95.5617Q0.504878 94.719 0.378811 93.8692Q0.252744 93.0193 0.16853 92.1643Q0.0843156 91.3092 0.0421578 90.4511Q0 89.5929 0 88.7338L0 34.999Q0 34.1398 0.0421578 33.2816Q0.0843156 32.4235 0.16853 31.5685Q0.252744 30.7134 0.378811 29.8635Q0.504878 29.0137 0.672495 28.171Q0.840112 27.3283 1.04887 26.4949Q1.25764 25.6615 1.50704 24.8393Q1.75645 24.0171 2.0459 23.2082Q2.33534 22.3992 2.66414 21.6054Q2.99293 20.8117 3.36028 20.035Q3.72762 19.2583 4.13263 18.5006Q4.53765 17.7428 4.97935 17.0059Q5.42106 16.269 5.89839 15.5546Q6.37572 14.8402 6.88753 14.1501Q7.39934 13.46 7.9444 12.7959Q8.48945 12.1317 9.06644 11.4951Q9.64343 10.8585 10.251 10.251Q10.8585 9.64343 11.4951 9.06644Q12.1317 8.48945 12.7959 7.9444Q13.46 7.39934 14.1501 6.88753Q14.8402 6.37572 15.5546 5.89839Q16.269 5.42106 17.0059 4.97935Q17.7428 4.53765 18.5006 4.13263Q19.2583 3.72762 20.035 3.36027Q20.8117 2.99293 21.6054 2.66414Q22.3992 2.33534 23.2082 2.0459Q24.0171 1.75645 24.8393 1.50704Q25.6615 1.25764 26.4949 1.04887Q27.3283 0.840112 28.171 0.672495Q29.0137 0.504878 29.8635 0.378811Q30.7134 0.252744 31.5685 0.16853Q32.4235 0.0843156 33.2816 0.0421578Q34.1398 0 34.999 0L34.999 0Z" transform="translate(45.000122 0)" id="Rectangle-4" fill="#F26C35" fill-rule="evenodd" stroke="none" />
      <path d="M0 0L69.9999 0L69.9999 300L0 300L0 0Z" transform="translate(45.49994 158.00005)" id="Rectangle" fill="#FFFFFF" fill-rule="evenodd" stroke="none" />
    </g>
  </g>
</svg>